# xmcd CD database file
#
# Track frame offsets:
#	150
#	17556
#	36530
#	51044
#	63875
#	76856
#	89809
#	104140
#	120341
#	137933
#	162305
#	179633
#	194471
#	215832
#
# Disc length: 3061 seconds
#
# Revision: 0
# Processed by: cddbd v1.5.1PL0 Copyright (c) Steve Scherf et al.
# Submitted via: CDex 1.60beta1
#
DISCID=d10bf30e
DTITLE=Count Basie - Count Basie and Friends: 100th Birthday Bash [CD1]
DYEAR=1900
DGENRE=Jazz
TTITLE0=Whirly-Birds [Mono Version]
TTITLE1=Goin' to Chicago [Stereo]
TTITLE2=Cute [Stereo]
TTITLE3=I Want a Little Girl [Stereo]
TTITLE4=Teach Me Tonight [Stereo]
TTITLE5=The Late Late Show [Mono Version]
TTITLE6=Lonesome Lover Blues [Stereo]
TTITLE7=Blue and Sentimental [Stereo]
TTITLE8=Trav'lin' Light [Stereo]
TTITLE9=Farouk [Stereo]
TTITLE10=For Lena and Lennie [Stereo]
TTITLE11=Untouchable [Stereo]
TTITLE12=Everyday (I Have the Blues) [Stereo]
TTITLE13=I've Grown Accustomed to Her Face [Stereo]
EXTD=
EXTT0=
EXTT1=
EXTT2=
EXTT3=
EXTT4=
EXTT5=
EXTT6=
EXTT7=
EXTT8=
EXTT9=
EXTT10=
EXTT11=
EXTT12=
EXTT13=
PLAYORDER=
